<?xml version="1.0" encoding="iso-8859-1"?>
<!-- Generator: Adobe Illustrator 19.0.0, SVG Export Plug-In . SVG Version: 6.00 Build 0)  -->
<svg version="1.1" id="Layer_1" xmlns="http://www.w3.org/2000/svg" xmlns:xlink="http://www.w3.org/1999/xlink" x="0px" y="0px"
	 viewBox="0 0 512 512" style="enable-background:new 0 0 512 512;" xml:space="preserve">
<path style="fill:#E6E9ED;" d="M320.008,0v246.234H192.023V0C105.461,27.188,42.664,108.031,42.664,203.562V512h426.672V203.562
	C469.336,108.047,406.555,27.188,320.008,0z"/>
<rect x="192.02" y="54.23" style="fill:#CCD1D9;" width="127.98" height="192"/>
<path style="fill:#FFCE54;" d="M256.023,171.562c-17.656,0-32.016-14.359-32.016-32c0-17.656,14.359-32,32.016-32
	c17.625,0,31.984,14.344,31.984,32C288.008,157.203,273.648,171.562,256.023,171.562z"/>
<path style="fill:#434A54;" d="M256.023,96.891c-23.578,0-42.688,19.109-42.688,42.672s19.109,42.656,42.688,42.656
	c23.562,0,42.656-19.094,42.656-42.656S279.586,96.891,256.023,96.891z M256.023,160.891c-11.781,0-21.344-9.562-21.344-21.328
	s9.562-21.344,21.344-21.344c11.75,0,21.312,9.578,21.312,21.344S267.773,160.891,256.023,160.891z"/>
<path style="fill:#CCD1D9;" d="M479.992,341.328h-448c-5.875,0-10.656,4.766-10.656,10.672c0,5.891,4.781,10.672,10.656,10.672h448
	c5.906,0,10.672-4.781,10.672-10.672C490.664,346.094,485.898,341.328,479.992,341.328z"/>
<path style="fill:#656D78;" d="M255.992,405.328c-23.562,0-42.656,19.109-42.656,42.672v64h85.328v-64
	C298.664,424.438,279.57,405.328,255.992,405.328z"/>
<g>
</g>
<g>
</g>
<g>
</g>
<g>
</g>
<g>
</g>
<g>
</g>
<g>
</g>
<g>
</g>
<g>
</g>
<g>
</g>
<g>
</g>
<g>
</g>
<g>
</g>
<g>
</g>
<g>
</g>
</svg>
