<?xml version="1.0" encoding="iso-8859-1"?>
<!-- Generator: Adobe Illustrator 19.0.0, SVG Export Plug-In . SVG Version: 6.00 Build 0)  -->
<svg version="1.1" id="Layer_1" xmlns="http://www.w3.org/2000/svg" xmlns:xlink="http://www.w3.org/1999/xlink" x="0px" y="0px"
	 viewBox="0 0 512 512" style="enable-background:new 0 0 512 512;" xml:space="preserve">
<g transform="translate(1 1)">
	<path style="fill:#CCCCCC;" d="M502.172,255c0,136.828-110.345,247.172-247.172,247.172S7.828,391.828,7.828,255
		S118.172,7.828,255,7.828S502.172,118.172,502.172,255"/>
	<path style="fill:#E2E3E5;" d="M475.69,255c0,136.828-105.048,247.172-233.931,247.172S7.828,391.828,7.828,255
		S112.876,7.828,241.759,7.828S475.69,118.172,475.69,255"/>
	<path style="fill:#FFFFFF;" d="M255,502.172c4.414,0,8.828,0,13.241,0C137.593,495.11,34.31,387.414,34.31,255
		S137.593,14.89,268.241,7.828c-4.414,0-8.828,0-13.241,0C118.172,7.828,7.828,118.172,7.828,255S118.172,502.172,255,502.172"/>
	<g>
		<path style="fill:#B6B6B6;" d="M255,511C113.759,511-1,396.241-1,255S113.759-1,255-1s256,114.759,256,256S396.241,511,255,511z
			 M255,16.655C123.469,16.655,16.655,123.469,16.655,255S123.469,493.345,255,493.345S493.345,386.531,493.345,255
			S386.531,16.655,255,16.655z"/>
		<path style="fill:#B6B6B6;" d="M255,511c-5.297,0-8.828-3.531-8.828-8.828V7.828C246.172,2.531,249.703-1,255-1
			c5.297,0,8.828,3.531,8.828,8.828v494.345C263.828,507.469,260.297,511,255,511z"/>
		<path style="fill:#B6B6B6;" d="M255,511c-0.883,0-2.648,0-3.531,0h-1.766c-1.766,0-3.531-0.883-5.297-1.766
			C166.724,446.559,122.586,353.869,122.586,255S166.724,63.441,243.524,0.766C245.29-0.117,247.055-1,248.821-1h1.766
			c0.883,0,2.648,0,3.531,0c5.297,0,8.828,3.531,8.828,8.828s-3.531,8.828-8.828,8.828c-0.883,0-1.766,0-2.648,0
			C180.848,75.8,140.241,162.31,140.241,255s40.607,179.2,112.11,238.345c0.883,0,1.766,0,2.648,0c5.297,0,8.828,3.531,8.828,8.828
			S260.297,511,255,511z"/>
		<path style="fill:#B6B6B6;" d="M255,149.069c-66.207,0-129.766-19.421-184.497-56.497c-3.531-3.531-4.414-8.828-1.766-12.359
			c2.648-4.414,7.945-5.297,12.359-2.648c51.2,35.31,112.11,53.848,173.903,53.848c62.676,0,122.703-18.538,173.903-53.848
			c4.414-2.648,9.71-1.766,12.359,2.648c2.648,4.414,1.766,9.71-2.648,12.359C384.766,129.648,321.207,149.069,255,149.069z"/>
		<path style="fill:#B6B6B6;" d="M70.503,428.903c-2.648,0-5.297-0.883-7.062-3.531c-2.648-3.531-1.766-9.71,1.766-12.359
			c56.497-39.724,121.821-60.91,189.793-60.91s133.297,21.186,188.91,60.91c4.414,2.648,5.297,7.945,1.766,12.359
			c-2.648,4.414-7.945,5.297-12.359,1.766c-52.966-37.076-114.759-57.379-179.2-57.379s-126.234,19.421-179.2,57.379
			C74.034,428.021,72.269,428.903,70.503,428.903z"/>
		<path style="fill:#B6B6B6;" d="M255,511c-5.297,0-8.828-3.531-8.828-8.828s3.531-8.828,8.828-8.828c0.883,0,1.766,0,2.648,0
			C329.152,434.2,369.759,347.69,369.759,255S329.152,75.8,257.648,16.655c-0.883,0-1.766,0-2.648,0
			c-5.297,0-8.828-3.531-8.828-8.828S249.703-1,255-1c0.883,0,2.648,0,3.531,0h1.766c1.766,0,3.531,0.883,5.297,1.766
			C343.276,63.441,387.414,156.131,387.414,255s-44.138,191.559-120.938,254.234c-1.766,0.883-3.531,1.766-5.297,1.766h-1.766
			C257.648,511,255.883,511,255,511z"/>
		<path style="fill:#B6B6B6;" d="M502.172,263.828H7.828C2.531,263.828-1,260.297-1,255c0-5.297,3.531-8.828,8.828-8.828h494.345
			c5.297,0,8.828,3.531,8.828,8.828C511,260.297,507.469,263.828,502.172,263.828z"/>
	</g>
</g>
<g>
</g>
<g>
</g>
<g>
</g>
<g>
</g>
<g>
</g>
<g>
</g>
<g>
</g>
<g>
</g>
<g>
</g>
<g>
</g>
<g>
</g>
<g>
</g>
<g>
</g>
<g>
</g>
<g>
</g>
</svg>
