<?xml version="1.0" standalone="no"?>
<!DOCTYPE svg PUBLIC "-//W3C//DTD SVG 20010904//EN"
 "http://www.w3.org/TR/2001/REC-SVG-20010904/DTD/svg10.dtd">
<svg version="1.0" xmlns="http://www.w3.org/2000/svg"
 width="2400.000000pt" height="2400.000000pt" viewBox="0 0 2400.000000 2400.000000"
 preserveAspectRatio="xMidYMid meet">

<g transform="translate(0.000000,2400.000000) scale(0.100000,-0.100000)"
fill="#000000" stroke="none">
<path d="M11180 21829 c-1721 -81 -3376 -629 -4809 -1592 -771 -518 -1486
-1173 -2068 -1894 -1723 -2134 -2427 -4875 -1947 -7582 27 -154 121 -600 127
-608 1 -1 29 15 62 34 309 182 878 477 1340 693 l270 127 3 1331 2 1331 -140
216 c-77 118 -140 217 -140 220 0 3 343 4 761 3 l761 -3 633 -1065 c347 -585
637 -1066 644 -1068 8 -3 11 232 11 928 l0 932 -120 137 -120 136 240 3 c132
1 347 1 478 0 l238 -3 -118 -183 -118 -183 0 -804 c0 -443 3 -805 6 -805 15 0
620 181 894 267 168 53 333 105 367 115 l62 20 -65 121 c-97 181 -339 669
-423 852 -510 1111 -813 2127 -882 2962 -15 185 -6 640 15 782 74 488 254 826
539 1014 222 147 487 243 781 282 174 23 494 16 676 -14 855 -145 1784 -674
2839 -1618 221 -198 773 -748 1000 -997 225 -246 499 -559 540 -616 18 -25
103 -122 189 -215 86 -94 211 -232 277 -308 66 -75 123 -137 128 -137 11 0
363 152 762 330 1518 676 2987 1425 4129 2108 188 112 575 349 585 358 12 11
-312 479 -504 729 -440 572 -972 1118 -1535 1574 -939 761 -2013 1334 -3159
1686 -1028 315 -2134 455 -3211 404z m802 -1046 c22 -20 23 -70 1 -95 -20 -22
-76 -24 -97 -2 -21 20 -20 73 1 96 20 22 70 23 95 1z m1849 -728 c42 -275 43
-281 73 -311 l31 -32 330 -47 c181 -25 332 -48 334 -50 6 -6 -26 -12 -364 -65
-280 -44 -323 -53 -341 -73 -18 -19 -29 -68 -68 -322 -26 -164 -49 -301 -51
-303 -6 -6 -13 29 -62 318 -38 226 -52 289 -68 307 -18 21 -52 29 -325 73
-321 53 -355 59 -349 65 2 2 148 25 324 51 314 47 320 48 343 76 20 24 31 73
73 315 27 159 52 299 55 313 l7 25 7 -30 c5 -16 27 -156 51 -310z m-2443 -118
c32 -15 52 -57 52 -108 0 -33 -6 -47 -34 -75 -29 -29 -41 -34 -81 -34 -40 0
-52 5 -81 34 -28 28 -34 42 -34 75 0 103 84 154 178 108z m1070 -254 c24 -15
52 -68 52 -99 0 -31 -33 -85 -61 -99 -89 -47 -186 16 -176 113 10 91 105 135
185 85z m-2548 -413 c13 -25 5 -56 -16 -64 -24 -9 -54 12 -54 37 0 46 50 64
70 27z m1944 -16 c21 -20 20 -30 -3 -53 -25 -25 -59 -17 -67 15 -12 46 37 72
70 38z m-1756 -100 c48 -55 10 -143 -63 -144 -64 0 -104 56 -84 117 21 64 101
78 147 27z m1420 -90 c41 -29 25 -102 -27 -119 -46 -14 -100 38 -84 82 18 52
67 68 111 37z m-1348 -464 c29 -29 26 -74 -7 -100 -64 -50 -143 29 -93 93 26
33 71 36 100 7z m2170 -20 c35 -19 33 -88 -4 -112 -24 -16 -75 -8 -90 14 -47
66 21 137 94 98z m1318 -956 c48 -54 10 -134 -63 -134 -72 0 -109 77 -65 133
34 43 89 43 128 1z"/>
<path d="M8538 18410 c-345 -37 -700 -179 -888 -357 -211 -199 -342 -533 -381
-975 -14 -163 -7 -539 15 -723 106 -901 421 -1880 978 -3040 119 -246 336
-667 368 -714 l15 -21 201 67 200 66 143 478 144 478 -207 219 c-113 121 -206
223 -206 226 0 3 377 6 839 6 l839 0 59 -157 c33 -87 98 -258 144 -380 76
-203 85 -222 104 -217 142 44 1384 521 1970 757 499 201 1085 445 1097 456 11
10 -192 242 -492 561 -70 74 -192 209 -271 300 -503 578 -1059 1138 -1539
1551 -940 806 -1822 1286 -2576 1399 -159 24 -426 33 -556 20z m905 -863 c46
-291 48 -299 77 -329 30 -29 34 -30 338 -74 169 -25 318 -47 332 -51 25 -6 25
-6 -5 -13 -16 -5 -168 -29 -336 -56 -268 -42 -309 -50 -333 -71 -27 -23 -30
-36 -75 -323 -26 -165 -50 -302 -52 -305 -3 -3 -29 135 -58 306 -53 311 -64
349 -101 349 -29 0 -650 103 -646 107 2 3 150 27 327 54 288 43 326 51 345 71
17 19 28 69 64 278 62 375 62 372 70 363 4 -4 28 -142 53 -306z m-745 -643
c47 -53 12 -134 -58 -134 -55 0 -85 27 -85 78 0 85 86 118 143 56z m680 -1002
c5 -32 -16 -54 -47 -50 -18 2 -27 10 -29 26 -6 40 5 54 40 50 26 -2 34 -8 36
-26z"/>
<path d="M19965 15962 c-580 -572 -1229 -1142 -1913 -1680 l-193 -152 238 -2
238 -3 657 -1585 658 -1585 215 -210 c119 -115 216 -213 215 -217 0 -10 -2230
-10 -2230 -1 0 4 80 87 177 185 l176 177 -89 230 -89 231 -597 0 -596 0 -11
-32 c-14 -45 -118 -419 -123 -439 -1 -10 51 -90 117 -180 66 -89 122 -166 123
-171 2 -4 -100 -8 -227 -8 -127 0 -231 -1 -231 -3 0 -2 18 -57 40 -122 23 -66
65 -203 95 -305 454 -1553 358 -2713 -270 -3269 -177 -157 -394 -259 -650
-307 -155 -29 -533 -27 -710 5 -370 65 -755 196 -1138 387 -179 89 -388 206
-394 220 -4 12 47 104 58 104 4 0 55 -28 115 -62 151 -85 505 -256 649 -313
717 -283 1330 -315 1759 -92 348 181 594 547 690 1029 46 226 51 289 51 603 0
301 -5 378 -46 660 -55 386 -166 836 -312 1275 l-62 185 -245 3 -244 2 177
178 178 178 -75 180 c-111 269 -204 471 -346 759 -121 243 -321 619 -340 639
-8 8 -150 -82 -150 -96 0 -4 20 -30 44 -57 108 -122 191 -277 232 -436 66
-254 13 -609 -120 -809 -258 -387 -694 -643 -1201 -706 -129 -16 -415 -13
-563 5 -148 19 -396 72 -532 115 -79 25 -97 27 -110 16 -8 -7 -91 -81 -184
-165 -93 -83 -173 -151 -178 -151 -4 0 -9 90 -10 199 l-3 199 -205 -140 c-297
-204 -1532 -1052 -1544 -1061 -27 -19 276 -252 434 -333 254 -130 470 -337
569 -544 42 -89 53 -178 27 -228 -79 -154 -435 -34 -726 245 -91 87 -171 188
-217 274 -19 35 -91 133 -161 218 -70 84 -136 165 -148 178 l-20 26 -325 -223
c-1753 -1207 -2545 -1756 -2729 -1894 -388 -289 -981 -788 -1400 -1176 -288
-268 -691 -662 -687 -674 12 -37 529 -431 837 -638 1260 -844 2696 -1368 4203
-1533 434 -48 1055 -67 1467 -46 1367 70 2610 396 3800 997 739 372 1388 814
2025 1377 189 167 572 548 736 732 775 869 1358 1814 1774 2874 661 1686 818
3566 445 5351 -93 448 -214 871 -370 1301 -64 175 -196 505 -223 555 -11 21
-24 10 -282 -244z m-1220 -6237 c42 -273 50 -313 71 -334 21 -22 49 -28 354
-72 183 -26 334 -50 337 -53 8 -7 -10 -10 -361 -65 -247 -39 -324 -55 -337
-68 -13 -14 -29 -94 -65 -325 -27 -170 -51 -305 -54 -300 -4 4 -30 142 -58
306 -40 231 -56 304 -70 318 -14 15 -90 31 -341 73 -178 30 -325 56 -327 58
-6 6 12 9 341 57 269 40 292 45 317 69 25 24 30 45 78 326 50 296 57 332 64
324 2 -2 25 -143 51 -314z m-1325 -15 c54 -54 -12 -137 -76 -95 -32 21 -33 77
-2 99 30 21 54 20 78 -4z m-1064 -484 c29 -29 34 -41 34 -79 0 -107 -125 -161
-199 -86 -75 74 -21 199 86 199 38 0 50 -5 79 -34z m1254 9 c35 -18 50 -43 50
-85 0 -44 -16 -69 -53 -85 -43 -18 -82 -9 -112 27 -41 49 -26 120 30 144 39
17 50 17 85 -1z m1361 -441 c10 -9 21 -31 24 -48 13 -66 -32 -118 -102 -118
-49 0 -93 46 -93 96 0 40 39 93 73 98 30 5 76 -8 98 -28z m-3337 -113 c25 -27
17 -72 -15 -90 -24 -13 -29 -13 -53 2 -47 31 -27 107 28 107 13 0 31 -9 40
-19z m1960 -881 c33 -12 61 -69 52 -105 -16 -62 -83 -93 -139 -63 -34 18 -46
40 -47 85 0 34 5 46 31 67 32 28 62 32 103 16z m-1882 -167 c31 -28 21 -79
-18 -94 -56 -21 -102 37 -69 87 18 28 60 32 87 7z m2158 -173 c18 -57 42 -117
54 -132 15 -20 50 -36 131 -64 61 -20 114 -40 118 -44 7 -7 -80 -42 -194 -79
-54 -17 -73 -45 -114 -168 -20 -62 -38 -113 -39 -113 -2 0 -22 54 -45 119 -23
65 -50 126 -59 134 -9 8 -72 34 -139 57 -68 23 -121 46 -118 50 2 3 54 21 114
40 78 23 117 40 134 59 14 14 40 71 60 126 48 136 49 137 57 128 5 -4 23 -55
40 -113z m678 -186 c41 -28 19 -94 -32 -94 -31 0 -46 18 -46 57 0 48 37 66 78
37z m-9528 -53 c37 -26 51 -60 46 -106 -7 -58 -51 -95 -112 -95 -39 0 -51 5
-80 34 -99 99 33 249 146 167z m3975 -97 c24 -10 46 -60 39 -89 -8 -31 -49
-65 -80 -65 -65 0 -101 93 -54 140 20 20 63 26 95 14z m-1721 -655 c29 -34 33
-67 11 -108 -45 -88 -175 -50 -175 51 0 56 34 88 94 88 37 0 48 -5 70 -31z
m-3200 -30 c23 -27 27 -38 22 -67 -18 -116 -186 -111 -186 5 0 97 98 134 164
62z m1031 -125 c19 -8 45 -55 45 -83 0 -11 -12 -33 -26 -50 -59 -70 -167 -17
-150 75 4 18 17 40 29 49 22 15 73 20 102 9z m-654 -641 c46 -293 50 -308 76
-334 27 -26 43 -29 353 -74 179 -25 330 -47 335 -49 20 -7 -25 -15 -343 -65
-340 -54 -366 -61 -377 -111 -3 -14 -23 -142 -45 -285 -22 -143 -43 -271 -46
-285 l-7 -25 -7 30 c-5 17 -30 156 -56 310 -42 248 -50 283 -70 298 -15 11
-122 33 -331 67 -169 28 -316 54 -326 58 -11 5 114 27 305 56 291 43 325 50
347 71 25 24 34 67 121 583 6 40 14 71 17 68 4 -3 28 -144 54 -313z m7789 80
c59 -53 48 -153 -20 -188 -106 -55 -212 61 -150 163 36 59 119 71 170 25z
m-1565 -278 c34 -33 34 -93 1 -132 -20 -23 -32 -28 -71 -28 -60 0 -95 35 -95
96 0 57 34 89 95 89 35 0 52 -6 70 -25z"/>
<path d="M18485 15334 c-733 -395 -1846 -899 -2915 -1322 l-225 -88 -3 -407
c-1 -224 -5 -407 -8 -407 -3 0 -60 52 -127 115 -67 63 -124 115 -128 115 -4 0
47 -87 114 -193 67 -105 149 -238 182 -294 33 -57 63 -103 67 -103 21 0 944
678 1355 997 l141 109 -124 135 -124 134 296 3 296 2 136 113 c445 366 845
738 1073 997 73 84 143 170 138 170 -2 -1 -67 -35 -144 -76z"/>
<path d="M14525 13616 c-16 -7 -194 -71 -395 -141 -201 -71 -371 -133 -377
-138 -19 -14 -17 -180 1 -216 17 -32 76 -87 126 -118 58 -35 197 -79 386 -122
216 -49 281 -67 402 -115 119 -46 242 -109 360 -186 57 -37 98 -57 106 -53 57
35 196 138 196 145 0 23 -170 299 -391 633 -190 287 -196 294 -289 315 -59 13
-89 12 -125 -4z"/>
<path d="M16755 13353 c-165 -113 -498 -340 -740 -506 -242 -165 -443 -302
-447 -306 -4 -3 36 -85 88 -181 198 -364 405 -793 549 -1136 37 -87 70 -162
74 -166 3 -4 181 552 395 1235 214 683 391 1248 394 1255 2 6 0 12 -4 12 -5
-1 -144 -94 -309 -207z"/>
<path d="M17166 12469 c-104 -330 -187 -602 -184 -604 3 -3 200 -4 439 -3
l435 3 -247 598 c-135 328 -248 599 -250 601 -2 2 -89 -266 -193 -595z"/>
<path d="M9555 12979 c-15 -46 -30 -89 -32 -96 -3 -8 17 -4 56 10 34 12 61 24
61 27 0 3 -13 36 -29 74 l-29 68 -27 -83z"/>
<path d="M12270 12863 c-168 -51 -462 -139 -655 -194 -192 -55 -367 -106 -387
-112 l-36 -12 302 -800 302 -800 192 -190 c106 -104 197 -192 203 -193 5 -2
119 67 253 154 l244 158 -6 240 c-5 221 -4 239 12 233 9 -4 88 -61 176 -128
l160 -122 440 293 c242 161 440 297 440 301 0 8 -224 93 -395 149 -251 82
-460 201 -620 352 -205 194 -301 391 -314 648 l-6 116 -305 -93z"/>
<path d="M4710 11992 c0 -408 1 -742 3 -742 2 0 93 36 203 81 109 44 264 105
344 136 80 31 146 57 148 58 3 3 -676 1183 -690 1200 -4 5 -8 -325 -8 -733z"/>
<path d="M9583 12137 l-321 -81 -28 -91 c-15 -49 -29 -96 -32 -102 -3 -10 88
-13 437 -13 243 0 441 2 441 4 0 21 -151 361 -161 363 -8 1 -159 -35 -336 -80z"/>
<path d="M8710 11924 c-228 -53 -715 -157 -1095 -233 -220 -45 -410 -83 -422
-86 l-23 -5 0 -348 0 -348 170 -186 c94 -103 170 -189 170 -192 0 -3 -341 -6
-759 -6 l-758 0 -172 298 c-94 163 -175 303 -180 311 -7 11 -39 3 -167 -39
-198 -66 -694 -239 -712 -249 -9 -5 22 -53 108 -167 l121 -159 -558 -5 -558
-5 -176 -77 c-426 -185 -631 -278 -880 -400 l-267 -130 10 -37 c28 -105 117
-386 174 -550 501 -1427 1348 -2726 2452 -3758 l144 -134 241 238 c755 743
1541 1403 2467 2069 440 318 1795 1262 2428 1693 50 35 92 66 92 70 0 4 -23
34 -51 66 -220 257 -1077 1413 -1229 1658 l-85 137 -70 -3 -70 -2 -36 -245
-35 -244 123 -166 c68 -90 123 -168 123 -172 0 -5 -254 -8 -565 -8 -311 0
-565 4 -565 8 0 5 90 89 199 187 l199 179 132 440 c73 243 145 483 160 534 16
50 27 92 27 91 -1 0 -49 -12 -107 -25z m-87 -1675 c28 -15 37 -28 37 -58 0
-35 -28 -61 -66 -61 -61 0 -86 71 -38 109 31 24 37 25 67 10z m-211 -1756 c37
-33 9 -113 -41 -113 -28 0 -71 39 -71 64 0 57 69 88 112 49z m-3558 -24 c47
-37 23 -109 -36 -109 -90 0 -91 123 -2 129 6 1 23 -8 38 -20z m1018 -96 c10
-9 18 -30 18 -49 0 -57 -69 -85 -110 -44 -58 58 31 149 92 93z m-174 -396 c45
-22 66 -100 41 -150 -20 -38 -51 -57 -99 -57 -52 0 -83 18 -105 60 -21 40 -19
72 8 111 36 53 93 67 155 36z m1617 -242 c29 -28 31 -51 9 -83 -18 -26 -74
-30 -98 -6 -24 24 -20 80 6 98 32 22 55 20 83 -9z m-1270 -171 c71 -33 84
-133 25 -186 -24 -22 -40 -28 -76 -28 -39 0 -51 5 -80 34 -26 26 -34 42 -34
70 0 50 23 90 62 109 42 21 62 21 103 1z"/>
<path d="M13700 11264 c-245 -168 -446 -309 -448 -313 -1 -5 12 -11 30 -14
204 -37 283 -48 394 -56 461 -33 728 97 773 374 11 72 -1 97 -84 173 -60 55
-188 142 -207 142 -7 -1 -213 -138 -458 -306z"/>
<path d="M9370 11345 c0 -46 1037 -1455 1243 -1688 l60 -68 -21 -28 c-12 -17
163 94 431 273 249 166 583 385 744 486 l292 185 -1019 3 c-561 1 -1020 5
-1020 9 0 4 79 87 175 183 l175 175 -92 238 -91 237 -439 0 c-241 0 -438 -2
-438 -5z"/>
</g>
</svg>
